<svg fill="none" height="24" viewBox="0 0 24 24" width="24" xmlns="http://www.w3.org/2000/svg"><path d="m9.35419 21c.70511.6224 1.63141 1 2.64581 1 1.0145 0 1.9407-.3776 2.6458-1m3.3542-13c0-1.5913-.6321-3.11742-1.7573-4.24264-1.1253-1.12522-2.6514-1.75736-4.2427-1.75736s-3.1174.63214-4.24262 1.75736-1.75736 2.65134-1.75736 4.24264c0 3.0902-.77953 5.206-1.65034 6.6054-.73453 1.1805-1.1018 1.7707-1.08834 1.9354.01492.1823.05354.2518.20045.3608.13269.0984.73082.0984 1.92708.0984h13.22233c1.1962 0 1.7944 0 1.927-.0984.147-.109.1856-.1785.2005-.3608.0135-.1647-.3538-.7549-1.0883-1.9354-.8709-1.3994-1.6504-3.5152-1.6504-6.6054z" stroke="#000" stroke-linecap="round" stroke-linejoin="round" stroke-width="2"/></svg>