<svg fill="none" height="24" viewBox="0 0 24 24" width="24" xmlns="http://www.w3.org/2000/svg"><path d="m12 14.3999-.6562.7546c.3763.3272.9361.3272 1.3124 0zm-5.1268.8543c.53128-.1509.83966-.7039.68879-1.2351-.15088-.5313-.70387-.8397-1.23515-.6888zm10.8-1.9239c-.5313-.1509-1.0843.1575-1.2351.6888-.1509.5312.1575 1.0842.6887 1.2351zm-1.8732-6.23475c0 .54457-.2153 1.22076-.6294 1.98601-.4069.75187-.9621 1.51034-1.5377 2.19854-.5727.6848-1.1484 1.2796-1.5822 1.7039-.2162.2115-.3957.3793-.5199.4931-.0621.0569-.1103.1002-.1422.1287-.016.0142-.0279.0247-.0355.0314-.0037.0033-.0064.0056-.008.007-.0008.0007-.0013.0011-.0015.0013-.0001.0001-.0001.0001-.0001.0001s.0001-.0001.0001-.0001c.0001-.0001.0002-.0002.6564.7544s.6564.7545.6565.7543c.0001 0 .0003-.0002.0005-.0004.0003-.0002.0007-.0006.0012-.001.0009-.0008.0022-.0019.0037-.0033.0031-.0026.0073-.0063.0126-.011.0106-.0093.0256-.0226.0448-.0397.0384-.0342.0933-.0836.1625-.147.1383-.1267.3338-.3095.5675-.5382.4663-.4561 1.0906-1.1005 1.7178-1.8504.6244-.7466 1.2693-1.6186 1.7624-2.5297.4859-.89783.8705-1.9173.8705-2.93795zm-3.8 7.30435c.6562-.7546.6563-.7545.6564-.7544 0 0 .0001.0001.0001.0001.0001 0 0 0-.0001-.0001-.0002-.0002-.0007-.0006-.0015-.0013-.0015-.0014-.0042-.0037-.008-.007-.0075-.0067-.0194-.0172-.0354-.0314-.032-.0285-.0801-.0718-.1422-.1287-.1242-.1138-.3037-.2816-.52-.4931-.4337-.4243-1.0094-1.0191-1.5822-1.7039-.57557-.6882-1.13071-1.44667-1.5376-2.19854-.41414-.76525-.62947-1.44144-.62947-1.98601h-2c0 1.02065.38466 2.04012.87052 2.93795.49311.9111 1.13797 1.7831 1.7624 2.5297.62721.7499 1.25155 1.3943 1.71775 1.8504.2338.2287.4293.4115.5676.5382.0691.0634.1241.1128.1624.147.0192.0171.0343.0304.0449.0397.0053.0047.0095.0084.0126.011.0015.0014.0027.0025.0037.0033.0004.0004.0008.0008.0012.001.0001.0002.0003.0004.0004.0004.0002.0002.0003.0003.6565-.7543zm-3.79997-7.30435c0-2.02044 1.68048-3.69565 3.79997-3.69565v-2c-3.18239 0-5.79997 2.52943-5.79997 5.69565zm3.79997-3.69565c2.1195 0 3.8 1.67521 3.8 3.69565h2c0-3.16622-2.6176-5.69565-5.8-5.69565zm8.6 14.2c0 .2039-.0949.4887-.4562.8446-.3647.3593-.9439.729-1.7402 1.0608-1.5882.6617-3.8516 1.0946-6.4036 1.0946v2c2.75 0 5.2866-.4625 7.1729-1.2485.9409-.3921 1.7677-.8844 2.3745-1.4821.6103-.6013 1.0526-1.3688 1.0526-2.2694zm-8.6 3c-2.55191 0-4.81535-.4329-6.40359-1.0946-.7963-.3318-1.37542-.7015-1.74019-1.0608-.36124-.3559-.4562-.6407-.4562-.8446h-2c0 .9006.44231 1.6681 1.05264 2.2694.6068.5977 1.43357 1.09 2.37452 1.4821 1.88628.786 4.42285 1.2485 7.17282 1.2485zm-8.59998-3c0-.251.15105-.6382.75975-1.1074.59868-.4614 1.51886-.8991 2.71343-1.2383l-.54636-1.9239c-1.34075.3807-2.52057.9095-3.38805 1.5782-.85747.6609-1.53877 1.5675-1.53877 2.6914zm13.72678-2.3457c1.1946.3392 2.1148.7769 2.7135 1.2383.6087.4692.7597.8564.7597 1.1074h2c0-1.1239-.6813-2.0305-1.5387-2.6914-.8675-.6687-2.0473-1.1975-3.3881-1.5782z" fill="#000"/></svg>